<svg xmlns="http://www.w3.org/2000/svg" version="1.1" xmlns:xlink="http://www.w3.org/1999/xlink" xmlns:svgjs="http://svgjs.dev/svgjs" width="1500" height="916" viewBox="0 0 1500 916"><g transform="matrix(1,0,0,1,-0.9090909090909918,0.7138352786217865)"><svg viewBox="0 0 396 242" data-background-color="#ffffff" preserveAspectRatio="xMidYMid meet" height="916" width="1500" xmlns="http://www.w3.org/2000/svg" xmlns:xlink="http://www.w3.org/1999/xlink"><g id="tight-bounds" transform="matrix(1,0,0,1,0.2400000000000091,-0.18858966967955837)"><svg viewBox="0 0 395.52 242.377179339359" height="242.377179339359" width="395.52"><g><svg viewBox="0 0 397.4975999999999 243.58906523605577" height="242.377179339359" width="395.52"><g><rect width="397.4975999999999" height="4.373011161655534" x="0" y="149.64493103297906" fill="#2499ff" opacity="1" stroke-width="0" stroke="transparent" fill-opacity="1" class="rect-qz-0" data-fill-palette-color="primary" rx="1%" id="qz-0" data-palette-color="#2499ff"></rect></g><g transform="matrix(1,0,0,1,0.9887999999999693,165.46561539268575)"><svg viewBox="0 0 395.52 78.12344984337007" height="78.12344984337007" width="395.52"><g id="textblocktransform"><svg viewBox="0 0 395.52 78.12344984337007" height="78.12344984337007" width="395.52" id="textblock"><g><svg viewBox="0 0 395.52 48.49147392386831" height="48.49147392386831" width="395.52"><g transform="matrix(1,0,0,1,0,0)"><svg width="395.52" viewBox="4.35 -35.6 295.52611935060054 36.050000000000004" height="48.49147392386831" data-palette-color="#2499ff"><g transform="matrix(1,0,0,1,0,0)"><g><svg width="4.422374594125329" viewBox="3.16 -36.36 28.68 36.36" height="5.6080638815905095" data-palette-color="#2499ff" id="scriptelement" x="292.1846120535379" y="-32.92371194079526"><path d="M10.85 0L3.16 0 3.16-36.36 17.51-36.36Q21.63-36.36 24.55-34.9 27.47-33.43 29-30.76 30.54-28.09 30.54-24.49L30.54-24.49Q30.54-20.86 28.98-18.26 27.41-15.66 24.46-14.28 21.5-12.89 17.31-12.89L17.31-12.89 7.71-12.89 7.71-19.07 16.07-19.07Q18.27-19.07 19.73-19.67 21.18-20.28 21.9-21.48 22.62-22.69 22.62-24.49L22.62-24.49Q22.62-26.3 21.9-27.54 21.18-28.78 19.72-29.43 18.25-30.08 16.03-30.08L16.03-30.08 10.85-30.08 10.85 0ZM14.51-16.55L22.8-16.55 31.84 0 23.35 0 14.51-16.55Z" opacity="1" transform="matrix(1,0,0,1,0,0)" fill="#2499ff" class="undefined-123" data-fill-palette-color="primary" id="yy-123"></path></svg></g></g><path d="M288.915-30.12C288.915-33.146 291.369-35.6 294.396-35.6 297.422-35.6 299.876-33.146 299.876-30.12 299.876-27.093 297.422-24.639 294.396-24.639 291.369-24.639 288.915-27.093 288.915-30.12ZM294.396-25.192C297.117-25.192 299.323-27.398 299.323-30.12 299.323-32.841 297.117-35.047 294.396-35.047 291.674-35.047 289.468-32.841 289.468-30.12 289.468-27.398 291.674-25.192 294.396-25.192Z" fill="#2499ff" id="scriptcircle" data-fill-palette-color="primary"></path><path d="M24.85 0L6.45 0Q5.45 0 4.9-0.58 4.35-1.15 4.35-2.15L4.35-2.15 4.35-33.35Q4.35-34.4 4.88-34.95 5.4-35.5 6.4-35.5L6.4-35.5Q7.4-35.5 7.93-34.95 8.45-34.4 8.45-33.35L8.45-33.35 8.45-3.6 24.85-3.6Q25.75-3.6 26.25-3.13 26.75-2.65 26.75-1.8L26.75-1.8Q26.75-0.95 26.25-0.48 25.75 0 24.85 0L24.85 0ZM38.6 0.45L38.6 0.45Q36.1 0.45 34.12-0.53 32.15-1.5 31-3.2 29.85-4.9 29.85-7L29.85-7Q29.85-9.7 31.22-11.25 32.6-12.8 35.77-13.45 38.95-14.1 44.45-14.1L44.45-14.1 46.7-14.1 46.7-11.45 44.5-11.45Q40.45-11.45 38.12-11.08 35.8-10.7 34.87-9.8 33.95-8.9 33.95-7.25L33.95-7.25Q33.95-5.2 35.37-3.9 36.8-2.6 39.25-2.6L39.25-2.6Q41.25-2.6 42.77-3.55 44.3-4.5 45.17-6.15 46.05-7.8 46.05-9.95L46.05-9.95 46.05-15.65Q46.05-18.75 44.8-20.13 43.55-21.5 40.7-21.5L40.7-21.5Q38.95-21.5 37.2-21.05 35.45-20.6 33.5-19.6L33.5-19.6Q32.8-19.25 32.3-19.38 31.8-19.5 31.5-19.9 31.2-20.3 31.15-20.83 31.1-21.35 31.37-21.85 31.65-22.35 32.25-22.65L32.25-22.65Q34.45-23.75 36.6-24.25 38.75-24.75 40.7-24.75L40.7-24.75Q43.85-24.75 45.9-23.73 47.95-22.7 48.95-20.63 49.95-18.55 49.95-15.3L49.95-15.3 49.95-1.75Q49.95-0.75 49.47-0.2 49 0.35 48.1 0.35L48.1 0.35Q47.15 0.35 46.65-0.2 46.15-0.75 46.15-1.75L46.15-1.75 46.15-5.65 46.6-5.65Q46.2-3.75 45.07-2.4 43.95-1.05 42.3-0.3 40.65 0.45 38.6 0.45ZM66.05 0.45L66.05 0.45Q63.1 0.45 61.17-0.63 59.25-1.7 58.27-3.85 57.3-6 57.3-9.2L57.3-9.2 57.3-22.6Q57.3-23.65 57.82-24.15 58.35-24.65 59.3-24.65L59.3-24.65Q60.3-24.65 60.82-24.15 61.35-23.65 61.35-22.6L61.35-22.6 61.35-9.25Q61.35-6.05 62.67-4.48 64-2.9 66.84-2.9L66.84-2.9Q69.95-2.9 71.9-5 73.84-7.1 73.84-10.5L73.84-10.5 73.84-22.6Q73.84-23.65 74.37-24.15 74.9-24.65 75.9-24.65L75.9-24.65Q76.84-24.65 77.37-24.15 77.9-23.65 77.9-22.6L77.9-22.6 77.9-1.75Q77.9 0.35 75.95 0.35L75.95 0.35Q75 0.35 74.47-0.2 73.95-0.75 73.95-1.75L73.95-1.75 73.95-6.3 74.59-5.6Q73.59-2.65 71.32-1.1 69.05 0.45 66.05 0.45ZM87.49 0.35L87.49 0.35Q86.49 0.35 85.99-0.2 85.49-0.75 85.49-1.75L85.49-1.75 85.49-22.6Q85.49-23.6 85.99-24.13 86.49-24.65 87.44-24.65L87.44-24.65Q88.39-24.65 88.92-24.13 89.44-23.6 89.44-22.6L89.44-22.6 89.44-18.3 88.89-18.9Q89.94-21.8 92.32-23.28 94.69-24.75 97.79-24.75L97.79-24.75Q100.69-24.75 102.62-23.7 104.54-22.65 105.49-20.53 106.44-18.4 106.44-15.15L106.44-15.15 106.44-1.75Q106.44-0.75 105.92-0.2 105.39 0.35 104.44 0.35L104.44 0.35Q103.44 0.35 102.92-0.2 102.39-0.75 102.39-1.75L102.39-1.75 102.39-14.9Q102.39-18.3 101.07-19.88 99.74-21.45 96.84-21.45L96.84-21.45Q93.49-21.45 91.52-19.38 89.54-17.3 89.54-13.85L89.54-13.85 89.54-1.75Q89.54 0.35 87.49 0.35ZM123.14 0.45L123.14 0.45Q119.89 0.45 117.47-1.1 115.04-2.65 113.72-5.48 112.39-8.3 112.39-12.15L112.39-12.15Q112.39-16.05 113.72-18.88 115.04-21.7 117.47-23.23 119.89-24.75 123.14-24.75L123.14-24.75Q126.44-24.75 128.79-23.1 131.14-21.45 131.94-18.65L131.94-18.65 131.39-18.65 131.39-33.55Q131.39-34.55 131.92-35.08 132.44-35.6 133.44-35.6L133.44-35.6Q134.39-35.6 134.92-35.08 135.44-34.55 135.44-33.55L135.44-33.55 135.44-1.75Q135.44-0.75 134.94-0.2 134.44 0.35 133.44 0.35L133.44 0.35Q132.49 0.35 131.97-0.2 131.44-0.75 131.44-1.75L131.44-1.75 131.44-6.5 131.99-5.8Q131.19-2.95 128.82-1.25 126.44 0.45 123.14 0.45ZM123.99-2.8L123.99-2.8Q126.24-2.8 127.94-3.9 129.64-5 130.57-7.1 131.49-9.2 131.49-12.15L131.49-12.15Q131.49-16.7 129.47-19.1 127.44-21.5 123.99-21.5L123.99-21.5Q121.69-21.5 120.02-20.43 118.34-19.35 117.42-17.28 116.49-15.2 116.49-12.15L116.49-12.15Q116.49-7.65 118.54-5.23 120.59-2.8 123.99-2.8ZM153.99 0.45L153.99 0.45Q150.14 0.45 147.36-1.07 144.59-2.6 143.06-5.4 141.54-8.2 141.54-12.1L141.54-12.1Q141.54-15.9 143.04-18.73 144.54-21.55 147.16-23.15 149.79-24.75 153.24-24.75L153.24-24.75Q155.69-24.75 157.64-23.93 159.59-23.1 160.96-21.55 162.34-20 163.06-17.8 163.79-15.6 163.79-12.85L163.79-12.85Q163.79-12.05 163.34-11.68 162.89-11.3 162.04-11.3L162.04-11.3 144.64-11.3 144.64-13.95 161.09-13.95 160.29-13.3Q160.29-16 159.49-17.88 158.69-19.75 157.16-20.75 155.64-21.75 153.34-21.75L153.34-21.75Q150.79-21.75 149.01-20.58 147.24-19.4 146.34-17.32 145.44-15.25 145.44-12.5L145.44-12.5 145.44-12.2Q145.44-7.6 147.66-5.2 149.89-2.8 153.99-2.8L153.99-2.8Q155.69-2.8 157.36-3.25 159.04-3.7 160.64-4.75L160.64-4.75Q161.34-5.2 161.91-5.18 162.49-5.15 162.84-4.83 163.19-4.5 163.31-4.03 163.44-3.55 163.21-3 162.99-2.45 162.34-2.05L162.34-2.05Q160.69-0.85 158.44-0.2 156.19 0.45 153.99 0.45ZM171.69 0.35L171.69 0.35Q170.69 0.35 170.16-0.2 169.64-0.75 169.64-1.75L169.64-1.75 169.64-22.6Q169.64-23.6 170.14-24.13 170.64-24.65 171.59-24.65L171.59-24.65Q172.53-24.65 173.06-24.13 173.59-23.6 173.59-22.6L173.59-22.6 173.59-18.55 173.09-18.55Q173.89-21.5 176.14-23.1 178.39-24.7 181.69-24.8L181.69-24.8Q182.44-24.85 182.89-24.48 183.34-24.1 183.39-23.2L183.39-23.2Q183.44-22.35 182.99-21.85 182.53-21.35 181.59-21.25L181.59-21.25 180.78-21.15Q177.39-20.85 175.56-18.98 173.74-17.1 173.74-13.85L173.74-13.85 173.74-1.75Q173.74-0.75 173.21-0.2 172.69 0.35 171.69 0.35ZM221.48 0L203.08 0Q202.08 0 201.53-0.58 200.98-1.15 200.98-2.15L200.98-2.15 200.98-33.35Q200.98-34.4 201.51-34.95 202.03-35.5 203.03-35.5L203.03-35.5Q204.03-35.5 204.56-34.95 205.08-34.4 205.08-33.35L205.08-33.35 205.08-3.6 221.48-3.6Q222.38-3.6 222.88-3.13 223.38-2.65 223.38-1.8L223.38-1.8Q223.38-0.95 222.88-0.48 222.38 0 221.48 0L221.48 0ZM229.58 0.25L229.58 0.25Q228.58 0.25 228.08-0.33 227.58-0.9 227.58-1.95L227.58-1.95 227.58-22.4Q227.58-23.45 228.08-24 228.58-24.55 229.58-24.55L229.58-24.55Q230.53-24.55 231.08-24 231.63-23.45 231.63-22.4L231.63-22.4 231.63-1.95Q231.63-0.9 231.1-0.33 230.58 0.25 229.58 0.25ZM229.58-30.15L229.58-30.15Q228.33-30.15 227.63-30.83 226.93-31.5 226.93-32.65L226.93-32.65Q226.93-33.85 227.63-34.48 228.33-35.1 229.58-35.1L229.58-35.1Q230.88-35.1 231.55-34.48 232.23-33.85 232.23-32.65L232.23-32.65Q232.23-31.5 231.55-30.83 230.88-30.15 229.58-30.15ZM241.18 0.35L241.18 0.35Q240.18 0.35 239.68-0.2 239.18-0.75 239.18-1.75L239.18-1.75 239.18-22.6Q239.18-23.6 239.68-24.13 240.18-24.65 241.13-24.65L241.13-24.65Q242.08-24.65 242.6-24.13 243.13-23.6 243.13-22.6L243.13-22.6 243.13-18.3 242.58-18.9Q243.63-21.8 246-23.28 248.38-24.75 251.48-24.75L251.48-24.75Q254.38-24.75 256.3-23.7 258.23-22.65 259.18-20.53 260.13-18.4 260.13-15.15L260.13-15.15 260.13-1.75Q260.13-0.75 259.6-0.2 259.08 0.35 258.13 0.35L258.13 0.35Q257.13 0.35 256.6-0.2 256.08-0.75 256.08-1.75L256.08-1.75 256.08-14.9Q256.08-18.3 254.75-19.88 253.43-21.45 250.53-21.45L250.53-21.45Q247.18-21.45 245.2-19.38 243.23-17.3 243.23-13.85L243.23-13.85 243.23-1.75Q243.23 0.35 241.18 0.35ZM269.57 0.35L269.57 0.35Q268.57 0.35 268.07-0.2 267.57-0.75 267.57-1.75L267.57-1.75 267.57-33.55Q267.57-34.55 268.07-35.08 268.57-35.6 269.57-35.6L269.57-35.6Q270.52-35.6 271.07-35.08 271.62-34.55 271.62-33.55L271.62-33.55 271.62-13.5 271.72-13.5 281.97-23.3Q282.67-23.95 283.2-24.3 283.72-24.65 284.62-24.65L284.62-24.65Q285.42-24.65 285.87-24.23 286.32-23.8 286.3-23.18 286.27-22.55 285.67-21.85L285.67-21.85 274.77-11.5 274.77-13.7 286.62-2.55Q287.32-1.85 287.32-1.2 287.32-0.55 286.85-0.1 286.37 0.35 285.62 0.35L285.62 0.35Q284.72 0.35 284.17-0.03 283.62-0.4 282.82-1.15L282.82-1.15 271.72-11.4 271.62-11.4 271.62-1.75Q271.62 0.35 269.57 0.35Z" opacity="1" transform="matrix(1,0,0,1,0,0)" fill="#2499ff" class="wordmark-text-0" data-fill-palette-color="primary" id="text-0"></path></svg></g></svg></g><g transform="matrix(1,0,0,1,0,59.93914712191945)"><svg viewBox="0 0 378.3084025455183 18.184302721450617" height="18.184302721450617" width="378.3084025455183"><g transform="matrix(1,0,0,1,0,0)"><svg width="378.3084025455183" viewBox="4.35 -35.7 937.23 45.050000000000004" height="18.184302721450617" data-palette-color="#5ab2ff"><path d="M24.85 0L6.45 0Q5.45 0 4.9-0.58 4.35-1.15 4.35-2.15L4.35-2.15 4.35-33.35Q4.35-34.4 4.88-34.95 5.4-35.5 6.4-35.5L6.4-35.5Q7.4-35.5 7.93-34.95 8.45-34.4 8.45-33.35L8.45-33.35 8.45-3.6 24.85-3.6Q25.75-3.6 26.25-3.13 26.75-2.65 26.75-1.8L26.75-1.8Q26.75-0.95 26.25-0.48 25.75 0 24.85 0L24.85 0ZM65.02 0.45L65.02 0.45Q62.52 0.45 60.55-0.53 58.57-1.5 57.42-3.2 56.27-4.9 56.27-7L56.27-7Q56.27-9.7 57.65-11.25 59.02-12.8 62.2-13.45 65.37-14.1 70.87-14.1L70.87-14.1 73.12-14.1 73.12-11.45 70.92-11.45Q66.87-11.45 64.55-11.08 62.22-10.7 61.3-9.8 60.37-8.9 60.37-7.25L60.37-7.25Q60.37-5.2 61.8-3.9 63.22-2.6 65.67-2.6L65.67-2.6Q67.67-2.6 69.2-3.55 70.72-4.5 71.6-6.15 72.47-7.8 72.47-9.95L72.47-9.95 72.47-15.65Q72.47-18.75 71.22-20.13 69.97-21.5 67.12-21.5L67.12-21.5Q65.37-21.5 63.62-21.05 61.87-20.6 59.92-19.6L59.92-19.6Q59.22-19.25 58.72-19.38 58.22-19.5 57.92-19.9 57.62-20.3 57.57-20.83 57.52-21.35 57.8-21.85 58.07-22.35 58.67-22.65L58.67-22.65Q60.87-23.75 63.02-24.25 65.17-24.75 67.12-24.75L67.12-24.75Q70.27-24.75 72.32-23.73 74.37-22.7 75.37-20.63 76.37-18.55 76.37-15.3L76.37-15.3 76.37-1.75Q76.37-0.75 75.9-0.2 75.42 0.35 74.52 0.35L74.52 0.35Q73.57 0.35 73.07-0.2 72.57-0.75 72.57-1.75L72.57-1.75 72.57-5.65 73.02-5.65Q72.62-3.75 71.5-2.4 70.37-1.05 68.72-0.3 67.07 0.45 65.02 0.45ZM118.9 0.45L118.9 0.45Q115.95 0.45 114.02-0.63 112.1-1.7 111.12-3.85 110.15-6 110.15-9.2L110.15-9.2 110.15-22.6Q110.15-23.65 110.67-24.15 111.2-24.65 112.15-24.65L112.15-24.65Q113.15-24.65 113.67-24.15 114.2-23.65 114.2-22.6L114.2-22.6 114.2-9.25Q114.2-6.05 115.52-4.48 116.85-2.9 119.7-2.9L119.7-2.9Q122.8-2.9 124.75-5 126.7-7.1 126.7-10.5L126.7-10.5 126.7-22.6Q126.7-23.65 127.22-24.15 127.75-24.65 128.75-24.65L128.75-24.65Q129.7-24.65 130.22-24.15 130.75-23.65 130.75-22.6L130.75-22.6 130.75-1.75Q130.75 0.35 128.8 0.35L128.8 0.35Q127.85 0.35 127.32-0.2 126.8-0.75 126.8-1.75L126.8-1.75 126.8-6.3 127.45-5.6Q126.45-2.65 124.17-1.1 121.9 0.45 118.9 0.45ZM166.77 0.35L166.77 0.35Q165.77 0.35 165.27-0.2 164.77-0.75 164.77-1.75L164.77-1.75 164.77-22.6Q164.77-23.6 165.27-24.13 165.77-24.65 166.72-24.65L166.72-24.65Q167.67-24.65 168.2-24.13 168.72-23.6 168.72-22.6L168.72-22.6 168.72-18.3 168.17-18.9Q169.22-21.8 171.6-23.28 173.97-24.75 177.07-24.75L177.07-24.75Q179.97-24.75 181.9-23.7 183.82-22.65 184.77-20.53 185.72-18.4 185.72-15.15L185.72-15.15 185.72-1.75Q185.72-0.75 185.2-0.2 184.67 0.35 183.72 0.35L183.72 0.35Q182.72 0.35 182.2-0.2 181.67-0.75 181.67-1.75L181.67-1.75 181.67-14.9Q181.67-18.3 180.35-19.88 179.02-21.45 176.12-21.45L176.12-21.45Q172.77-21.45 170.8-19.38 168.82-17.3 168.82-13.85L168.82-13.85 168.82-1.75Q168.82 0.35 166.77 0.35ZM228.84 0.45L228.84 0.45Q225.59 0.45 223.17-1.1 220.74-2.65 219.42-5.48 218.09-8.3 218.09-12.15L218.09-12.15Q218.09-16.05 219.42-18.88 220.74-21.7 223.17-23.23 225.59-24.75 228.84-24.75L228.84-24.75Q232.14-24.75 234.49-23.1 236.84-21.45 237.64-18.65L237.64-18.65 237.09-18.65 237.09-33.55Q237.09-34.55 237.62-35.08 238.14-35.6 239.14-35.6L239.14-35.6Q240.09-35.6 240.62-35.08 241.14-34.55 241.14-33.55L241.14-33.55 241.14-1.75Q241.14-0.75 240.64-0.2 240.14 0.35 239.14 0.35L239.14 0.35Q238.19 0.35 237.67-0.2 237.14-0.75 237.14-1.75L237.14-1.75 237.14-6.5 237.69-5.8Q236.89-2.95 234.52-1.25 232.14 0.45 228.84 0.45ZM229.69-2.8L229.69-2.8Q231.94-2.8 233.64-3.9 235.34-5 236.27-7.1 237.19-9.2 237.19-12.15L237.19-12.15Q237.19-16.7 235.17-19.1 233.14-21.5 229.69-21.5L229.69-21.5Q227.39-21.5 225.72-20.43 224.04-19.35 223.12-17.28 222.19-15.2 222.19-12.15L222.19-12.15Q222.19-7.65 224.24-5.23 226.29-2.8 229.69-2.8ZM277.22 0.35L277.22 0.35Q276.22 0.35 275.69-0.2 275.17-0.75 275.17-1.75L275.17-1.75 275.17-22.6Q275.17-23.6 275.67-24.13 276.17-24.65 277.12-24.65L277.12-24.65Q278.07-24.65 278.59-24.13 279.12-23.6 279.12-22.6L279.12-22.6 279.12-18.55 278.62-18.55Q279.42-21.5 281.67-23.1 283.92-24.7 287.22-24.8L287.22-24.8Q287.97-24.85 288.42-24.48 288.87-24.1 288.92-23.2L288.92-23.2Q288.97-22.35 288.52-21.85 288.07-21.35 287.12-21.25L287.12-21.25 286.32-21.15Q282.92-20.85 281.09-18.98 279.27-17.1 279.27-13.85L279.27-13.85 279.27-1.75Q279.27-0.75 278.74-0.2 278.22 0.35 277.22 0.35ZM326.39 9.35L326.39 9.35Q325.64 9.35 325.19 8.95 324.74 8.55 324.67 7.88 324.59 7.2 324.89 6.5L324.89 6.5 328.34-1.25 328.34 0.5 318.74-21.8Q318.44-22.55 318.54-23.2 318.64-23.85 319.14-24.25 319.64-24.65 320.54-24.65L320.54-24.65Q321.34-24.65 321.79-24.3 322.24-23.95 322.59-23.05L322.59-23.05 330.79-2.95 329.44-2.95 337.74-23.05Q338.14-23.95 338.59-24.3 339.04-24.65 339.89-24.65L339.89-24.65Q340.69-24.65 341.12-24.25 341.54-23.85 341.62-23.23 341.69-22.6 341.39-21.85L341.39-21.85 328.59 7.75Q328.19 8.65 327.72 9 327.24 9.35 326.39 9.35ZM422.99 0.45L422.99 0.45Q419.49 0.45 416.94-0.68 414.39-1.8 413.06-3.8 411.74-5.8 411.74-8.45L411.74-8.45Q411.74-10.15 412.19-11.58 412.64-13 413.56-14.28 414.49-15.55 415.89-16.75 417.29-17.95 419.14-19.2L419.14-19.2 420.74-20.25 420.19-19.4Q417.79-22 416.81-23.93 415.84-25.85 415.84-27.9L415.84-27.9Q415.84-30.2 416.89-31.98 417.94-33.75 419.91-34.73 421.89-35.7 424.49-35.7L424.49-35.7Q427.99-35.7 430.19-33.77 432.39-31.85 432.39-28.55L432.39-28.55Q432.39-26.75 431.69-25.18 430.99-23.6 429.34-22.03 427.69-20.45 424.74-18.7L424.74-18.7 424.84-19.75 434.19-9.25 433.29-9.25Q433.99-10.45 434.51-12 435.04-13.55 435.41-15.38 435.79-17.2 435.94-19.25L435.94-19.25Q436.04-20.1 436.49-20.55 436.94-21 437.79-21L437.79-21Q438.64-21 439.09-20.5 439.54-20 439.44-19.05L439.44-19.05Q439.24-16.55 438.74-14.3 438.24-12.05 437.44-10.13 436.64-8.2 435.64-6.6L435.64-6.6 435.59-7.8 440.54-2.35Q441.19-1.7 441.16-1.07 441.14-0.45 440.66-0.05 440.19 0.35 439.39 0.35L439.39 0.35Q438.69 0.35 438.24 0.08 437.79-0.2 437.19-0.75L437.19-0.75 433.39-5.05 434.44-5.05Q432.34-2.45 429.39-1 426.44 0.45 422.99 0.45ZM423.19-2.9L423.19-2.9Q426.04-2.9 428.26-4.1 430.49-5.3 432.14-7.6L432.14-7.6 432.09-6.35 421.49-17.95 423.09-17.8 421.54-16.8Q419.39-15.4 418.11-14.18 416.84-12.95 416.29-11.65 415.74-10.35 415.74-8.75L415.74-8.75Q415.74-6 417.64-4.45 419.54-2.9 423.19-2.9ZM424.49-32.55L424.49-32.55Q422.34-32.55 420.99-31.3 419.64-30.05 419.64-28L419.64-28Q419.64-26.9 419.96-25.98 420.29-25.05 421.14-23.93 421.99-22.8 423.49-21.05L423.49-21.05 422.44-21Q424.84-22.55 426.24-23.73 427.64-24.9 428.24-26 428.84-27.1 428.84-28.35L428.84-28.35Q428.84-30.3 427.64-31.43 426.44-32.55 424.49-32.55ZM525.29 0L515.64 0Q514.54 0 513.96-0.58 513.39-1.15 513.39-2.25L513.39-2.25 513.39-33Q513.39-34.1 513.96-34.68 514.54-35.25 515.64-35.25L515.64-35.25 525.29-35.25Q533.84-35.25 538.49-30.75 543.14-26.25 543.14-17.65L543.14-17.65Q543.14-13.35 541.96-10.08 540.79-6.8 538.49-4.55 536.19-2.3 532.89-1.15 529.59 0 525.29 0L525.29 0ZM517.49-31.75L517.49-3.5 524.99-3.5Q528.49-3.5 531.06-4.4 533.64-5.3 535.36-7.05 537.09-8.8 537.94-11.48 538.79-14.15 538.79-17.65L538.79-17.65Q538.79-24.7 535.34-28.23 531.89-31.75 524.99-31.75L524.99-31.75 517.49-31.75ZM578.41 0.35L578.41 0.35Q577.41 0.35 576.89-0.2 576.36-0.75 576.36-1.75L576.36-1.75 576.36-22.6Q576.36-23.6 576.86-24.13 577.36-24.65 578.31-24.65L578.31-24.65Q579.26-24.65 579.79-24.13 580.31-23.6 580.31-22.6L580.31-22.6 580.31-18.55 579.81-18.55Q580.61-21.5 582.86-23.1 585.11-24.7 588.41-24.8L588.41-24.8Q589.16-24.85 589.61-24.48 590.06-24.1 590.11-23.2L590.11-23.2Q590.16-22.35 589.71-21.85 589.26-21.35 588.31-21.25L588.31-21.25 587.51-21.15Q584.11-20.85 582.29-18.98 580.46-17.1 580.46-13.85L580.46-13.85 580.46-1.75Q580.46-0.75 579.94-0.2 579.41 0.35 578.41 0.35ZM627.58 9.35L627.58 9.35Q626.83 9.35 626.38 8.95 625.93 8.55 625.86 7.88 625.78 7.2 626.08 6.5L626.08 6.5 629.53-1.25 629.53 0.5 619.93-21.8Q619.63-22.55 619.73-23.2 619.83-23.85 620.33-24.25 620.83-24.65 621.73-24.65L621.73-24.65Q622.53-24.65 622.98-24.3 623.43-23.95 623.78-23.05L623.78-23.05 631.98-2.95 630.63-2.95 638.93-23.05Q639.33-23.95 639.78-24.3 640.23-24.65 641.08-24.65L641.08-24.65Q641.88-24.65 642.31-24.25 642.73-23.85 642.81-23.23 642.88-22.6 642.58-21.85L642.58-21.85 629.78 7.75Q629.38 8.65 628.91 9 628.43 9.35 627.58 9.35ZM729.43 0.45L729.43 0.45Q724.23 0.45 720.53-1.75 716.83-3.95 714.86-8 712.88-12.05 712.88-17.65L712.88-17.65Q712.88-21.85 714.01-25.18 715.13-28.5 717.26-30.83 719.38-33.15 722.48-34.43 725.58-35.7 729.43-35.7L729.43-35.7Q732.53-35.7 735.33-34.83 738.13-33.95 740.18-32.25L740.18-32.25Q740.83-31.75 741.06-31.13 741.28-30.5 741.11-29.93 740.93-29.35 740.51-28.98 740.08-28.6 739.48-28.6 738.88-28.6 738.13-29.1L738.13-29.1Q736.33-30.55 734.18-31.25 732.03-31.95 729.53-31.95L729.53-31.95Q725.58-31.95 722.83-30.28 720.08-28.6 718.68-25.4 717.28-22.2 717.28-17.65L717.28-17.65Q717.28-13.1 718.68-9.88 720.08-6.65 722.83-4.98 725.58-3.3 729.53-3.3L729.53-3.3Q731.98-3.3 734.18-4.03 736.38-4.75 738.23-6.2L738.23-6.2Q738.98-6.7 739.58-6.68 740.18-6.65 740.58-6.3 740.98-5.95 741.16-5.4 741.33-4.85 741.16-4.25 740.98-3.65 740.38-3.2L740.38-3.2Q738.28-1.4 735.46-0.48 732.63 0.45 729.43 0.45ZM781.1 0.45L781.1 0.45Q777.5 0.45 775.6-1.75 773.7-3.95 773.7-8.05L773.7-8.05 773.7-33.55Q773.7-34.55 774.2-35.08 774.7-35.6 775.7-35.6L775.7-35.6Q776.65-35.6 777.2-35.08 777.75-34.55 777.75-33.55L777.75-33.55 777.75-8.35Q777.75-5.65 778.83-4.33 779.9-3 782-3L782-3Q782.45-3 782.8-3.05 783.15-3.1 783.5-3.1L783.5-3.1Q784.05-3.15 784.28-2.85 784.5-2.55 784.5-1.65L784.5-1.65Q784.5-0.75 784.1-0.3 783.7 0.15 782.8 0.3L782.8 0.3Q782.4 0.35 781.95 0.4 781.5 0.45 781.1 0.45ZM825.63 0.45L825.63 0.45Q821.78 0.45 819-1.07 816.23-2.6 814.7-5.4 813.18-8.2 813.18-12.1L813.18-12.1Q813.18-15.9 814.68-18.73 816.18-21.55 818.8-23.15 821.43-24.75 824.88-24.75L824.88-24.75Q827.33-24.75 829.28-23.93 831.23-23.1 832.6-21.55 833.98-20 834.7-17.8 835.43-15.6 835.43-12.85L835.43-12.85Q835.43-12.05 834.98-11.68 834.53-11.3 833.68-11.3L833.68-11.3 816.28-11.3 816.28-13.95 832.73-13.95 831.93-13.3Q831.93-16 831.13-17.88 830.33-19.75 828.8-20.75 827.28-21.75 824.98-21.75L824.98-21.75Q822.43-21.75 820.65-20.58 818.88-19.4 817.98-17.32 817.08-15.25 817.08-12.5L817.08-12.5 817.08-12.2Q817.08-7.6 819.3-5.2 821.53-2.8 825.63-2.8L825.63-2.8Q827.33-2.8 829-3.25 830.68-3.7 832.28-4.75L832.28-4.75Q832.98-5.2 833.55-5.18 834.13-5.15 834.48-4.83 834.83-4.5 834.95-4.03 835.08-3.55 834.85-3 834.63-2.45 833.98-2.05L833.98-2.05Q832.33-0.85 830.08-0.2 827.83 0.45 825.63 0.45ZM875.35 0.45L875.35 0.45Q872.85 0.45 870.88-0.53 868.9-1.5 867.75-3.2 866.6-4.9 866.6-7L866.6-7Q866.6-9.7 867.98-11.25 869.35-12.8 872.53-13.45 875.7-14.1 881.2-14.1L881.2-14.1 883.45-14.1 883.45-11.45 881.25-11.45Q877.2-11.45 874.88-11.08 872.55-10.7 871.63-9.8 870.7-8.9 870.7-7.25L870.7-7.25Q870.7-5.2 872.13-3.9 873.55-2.6 876-2.6L876-2.6Q878-2.6 879.53-3.55 881.05-4.5 881.93-6.15 882.8-7.8 882.8-9.95L882.8-9.95 882.8-15.65Q882.8-18.75 881.55-20.13 880.3-21.5 877.45-21.5L877.45-21.5Q875.7-21.5 873.95-21.05 872.2-20.6 870.25-19.6L870.25-19.6Q869.55-19.25 869.05-19.38 868.55-19.5 868.25-19.9 867.95-20.3 867.9-20.83 867.85-21.35 868.13-21.85 868.4-22.35 869-22.65L869-22.65Q871.2-23.75 873.35-24.25 875.5-24.75 877.45-24.75L877.45-24.75Q880.6-24.75 882.65-23.73 884.7-22.7 885.7-20.63 886.7-18.55 886.7-15.3L886.7-15.3 886.7-1.75Q886.7-0.75 886.23-0.2 885.75 0.35 884.85 0.35L884.85 0.35Q883.9 0.35 883.4-0.2 882.9-0.75 882.9-1.75L882.9-1.75 882.9-5.65 883.35-5.65Q882.95-3.75 881.83-2.4 880.7-1.05 879.05-0.3 877.4 0.45 875.35 0.45ZM922.63 0.35L922.63 0.35Q921.63 0.35 921.13-0.2 920.63-0.75 920.63-1.75L920.63-1.75 920.63-22.6Q920.63-23.6 921.13-24.13 921.63-24.65 922.58-24.65L922.58-24.65Q923.53-24.65 924.05-24.13 924.58-23.6 924.58-22.6L924.58-22.6 924.58-18.3 924.03-18.9Q925.08-21.8 927.45-23.28 929.83-24.75 932.93-24.75L932.93-24.75Q935.83-24.75 937.75-23.7 939.68-22.65 940.63-20.53 941.58-18.4 941.58-15.15L941.58-15.15 941.58-1.75Q941.58-0.75 941.05-0.2 940.53 0.35 939.58 0.35L939.58 0.35Q938.58 0.35 938.05-0.2 937.53-0.75 937.53-1.75L937.53-1.75 937.53-14.9Q937.53-18.3 936.2-19.88 934.88-21.45 931.98-21.45L931.98-21.45Q928.63-21.45 926.65-19.38 924.68-17.3 924.68-13.85L924.68-13.85 924.68-1.75Q924.68 0.35 922.63 0.35Z" opacity="1" transform="matrix(1,0,0,1,0,0)" fill="#5ab2ff" class="slogan-text-1" data-fill-palette-color="secondary" id="text-1"></path></svg></g></svg></g></svg></g></svg></g><g transform="matrix(1,0,0,1,128.1315198975368,0)"><svg viewBox="0 0 141.2345602049263 138.1972578349279" height="138.1972578349279" width="141.2345602049263"><g><svg xmlns="http://www.w3.org/2000/svg" xmlns:xlink="http://www.w3.org/1999/xlink" version="1.1" x="0" y="0" viewBox="3.5 4 93 91" enable-background="new 0 0 100 100" xml:space="preserve" height="138.1972578349279" width="141.2345602049263" class="icon-icon-0" data-fill-palette-color="accent" id="icon-0"><path d="M92.024 50.395l-0.109-0.084L51.5 29.584V25.5c0-0.829-0.671-1.5-1.5-1.5-4.687 0-8.5-3.813-8.5-8.5S45.313 7 50 7c4.687 0 8.5 3.813 8.5 8.5 0 0.829 0.672 1.5 1.5 1.5s1.5-0.671 1.5-1.5C61.5 9.159 56.341 4 50 4c-6.341 0-11.5 5.159-11.5 11.5 0 5.832 4.367 10.652 10 11.391v2.693L8.208 50.248l-0.232 0.147C5.131 52.592 3.5 55.911 3.5 59.5 3.5 65.841 8.659 71 15 71h5v24h60V71h5c6.341 0 11.5-5.159 11.5-11.5C96.5 55.911 94.869 52.593 92.024 50.395zM85 68h-5v-3H20v3h-5c-4.687 0-8.5-3.813-8.5-8.5 0-2.608 1.166-5.024 3.205-6.648L50 32.186l40.295 20.666c2.039 1.625 3.205 4.04 3.205 6.648C93.5 64.187 89.687 68 85 68z" fill="#2499ff" data-fill-palette-color="accent"></path></svg></g></svg></g><g></g></svg></g><defs></defs></svg><rect width="395.52" height="242.377179339359" fill="none" stroke="none" visibility="hidden"></rect></g></svg></g></svg>